<?xml version="1.0" standalone="no"?>
<!DOCTYPE svg PUBLIC "-//W3C//DTD SVG 20010904//EN"
 "http://www.w3.org/TR/2001/REC-SVG-20010904/DTD/svg10.dtd">
<svg version="1.0" xmlns="http://www.w3.org/2000/svg"
 width="260.000000pt" height="260.000000pt" viewBox="0 0 260.000000 260.000000"
 preserveAspectRatio="xMidYMid meet">
<metadata>
Created by potrace 1.14, written by Peter Selinger 2001-2017
</metadata>
<g transform="translate(0.000000,260.000000) scale(0.100000,-0.100000)"
fill="#000000" stroke="none">
<path d="M1233 2243 c9 -2 25 -2 35 0 9 3 1 5 -18 5 -19 0 -27 -2 -17 -5z"/>
<path d="M1368 2233 c7 -3 16 -2 19 1 4 3 -2 6 -13 5 -11 0 -14 -3 -6 -6z"/>
<path d="M1145 2203 c-11 -3 -24 -10 -30 -15 -7 -8 -5 -9 7 -5 27 9 45 -15 51
-66 2 -27 9 -53 14 -58 11 -11 106 33 138 65 21 21 24 30 15 45 -17 33 -124
51 -195 34z"/>
<path d="M951 2179 c-14 -5 -32 -9 -40 -8 -24 3 -71 -12 -71 -23 0 -5 -4 -6
-10 -3 -5 3 -10 1 -10 -4 0 -6 -3 -10 -7 -9 -30 10 -229 -169 -288 -257 -45
-68 -71 -143 -80 -229 -10 -93 -1 -132 35 -151 35 -18 151 -156 185 -220 27
-49 24 -70 -15 -125 -28 -39 -25 -60 13 -117 l33 -50 -80 -32 c-164 -64 -310
-83 -400 -52 -82 29 -145 115 -161 221 -21 147 109 427 273 587 36 35 63 66
60 68 -3 3 -44 -35 -91 -85 -209 -219 -317 -468 -288 -659 34 -220 172 -325
421 -320 105 2 218 30 328 80 36 16 66 29 67 29 6 0 15 -52 25 -144 6 -54 16
-110 21 -125 16 -40 50 -71 78 -71 24 0 26 4 27 42 0 38 5 45 55 87 172 145
265 258 308 374 23 62 21 77 -8 77 -10 0 -33 5 -50 11 -37 13 -37 20 -2 107
l21 53 -30 -18 c-28 -16 -30 -21 -30 -78 0 -77 -52 -250 -79 -265 -21 -11 -23
-5 -52 153 -11 59 -16 70 -38 79 l-26 9 31 27 c17 15 86 65 153 111 67 46 120
86 117 88 -3 3 -24 -1 -48 -9 -42 -14 -48 -14 -213 34 -177 50 -212 53 -259
23 -32 -21 -25 -38 10 -24 23 8 40 0 145 -69 l119 -78 -25 -36 c-13 -19 -22
-38 -19 -40 4 -5 -114 21 -201 44 -37 9 -38 11 -20 24 10 8 37 14 60 14 23 0
44 3 48 6 12 12 -98 104 -137 115 -40 11 -97 9 -127 -5 -13 -6 -21 3 -34 39
-10 25 -30 56 -44 68 -24 20 -25 24 -14 47 23 44 15 64 -13 35 -18 -17 -50
-20 -59 -5 -14 23 8 105 36 132 24 24 35 28 84 28 l57 0 -6 -32 c-7 -39 9 -75
19 -43 38 122 116 200 246 249 35 13 57 26 50 30 -16 10 -13 43 5 50 25 9 32
7 53 -15 22 -24 41 -18 41 13 0 37 -33 89 -72 116 l-39 25 -54 -53 c-30 -30
-56 -52 -58 -49 -6 9 -27 76 -27 87 0 7 7 12 16 12 8 0 43 11 77 24 90 35 115
41 100 25 -35 -36 1 -65 42 -35 17 12 17 17 5 60 -14 51 -36 60 -78 30 -20
-14 -22 -14 -22 0 0 18 -5 19 -39 5z m24 -29 c-3 -5 -12 -10 -18 -10 -7 0 -6
4 3 10 19 12 23 12 15 0z"/>
<path d="M1560 2168 c0 -28 41 -77 79 -94 43 -20 44 -23 41 -106 -1 -39 2 -49
21 -59 22 -11 22 -12 4 -25 -10 -8 -27 -14 -36 -14 -16 0 -17 -4 -7 -32 16
-49 28 -59 62 -56 24 2 33 9 40 33 29 98 41 106 107 76 24 -12 63 -25 87 -31
32 -8 48 -20 68 -50 35 -53 52 -51 22 2 -32 57 -179 211 -253 263 -109 78
-235 127 -235 93z"/>
<path d="M1551 2018 c1 -13 0 -30 -2 -38 -2 -8 3 -15 11 -15 19 0 21 66 3 72
-8 3 -12 -4 -12 -19z"/>
<path d="M1590 1994 c0 -18 24 -44 40 -44 29 0 25 29 -6 40 -29 12 -34 12 -34
4z"/>
<path d="M2367 1923 c-12 -11 -8 -21 11 -26 11 -3 8 -5 -9 -6 -15 0 -30 -8
-33 -17 -15 -38 21 -25 68 25 l30 31 -30 0 c-17 0 -34 -3 -37 -7z"/>
<path d="M2345 1778 c-126 -77 -347 -211 -490 -298 -556 -337 -581 -353 -545
-345 83 17 168 58 336 160 99 60 215 136 259 170 154 120 233 157 220 103 -3
-13 -30 -133 -59 -268 -50 -228 -62 -300 -37 -219 23 74 1 -109 -25 -207 -39
-144 -39 -144 -21 -144 53 0 165 229 198 403 23 127 4 410 -32 453 -6 7 58 51
195 133 113 68 213 133 224 145 25 28 35 56 19 55 -7 0 -115 -64 -242 -141z"/>
<path d="M1791 1776 c-91 -45 -111 -66 -64 -66 101 1 265 21 290 35 22 12 23
14 6 10 -58 -16 -86 -9 -118 27 l-30 36 -84 -42z"/>
<path d="M2225 1790 c-10 -17 12 -37 25 -24 8 8 6 15 -4 23 -10 9 -16 9 -21 1z"/>
<path d="M2175 1760 c-10 -17 12 -37 25 -24 8 8 6 15 -4 23 -10 9 -16 9 -21 1z"/>
<path d="M2125 1730 c-10 -17 12 -37 25 -24 8 8 6 15 -4 23 -10 9 -16 9 -21 1z"/>
<path d="M2075 1700 c-10 -17 12 -37 25 -24 8 8 6 15 -4 23 -10 9 -16 9 -21 1z"/>
<path d="M2022 1658 c3 -7 13 -15 22 -16 12 -3 17 1 14 10 -3 7 -13 15 -22 16
-12 3 -17 -1 -14 -10z"/>
<path d="M1972 1628 c3 -7 13 -15 22 -16 12 -3 17 1 14 10 -3 7 -13 15 -22 16
-12 3 -17 -1 -14 -10z"/>
<path d="M1295 1599 c-10 -16 1 -22 26 -14 17 6 19 9 8 16 -19 12 -26 11 -34
-2z"/>
<path d="M1922 1593 c4 -21 33 -25 33 -3 0 8 -8 16 -18 18 -14 3 -18 -1 -15
-15z"/>
<path d="M1870 1566 c0 -18 16 -29 30 -21 13 8 1 35 -16 35 -8 0 -14 -6 -14
-14z"/>
<path d="M677 1554 c-9 -9 53 -65 64 -58 6 3 9 7 7 8 -2 0 -17 13 -34 29 -17
15 -33 25 -37 21z"/>
<path d="M1490 1536 c0 -9 6 -16 13 -16 16 0 46 20 30 20 -6 0 -18 3 -27 6
-11 4 -16 1 -16 -10z"/>
<path d="M1820 1536 c0 -18 16 -29 30 -21 13 8 1 35 -16 35 -8 0 -14 -6 -14
-14z"/>
<path d="M1770 1506 c0 -18 16 -29 30 -21 13 8 1 35 -16 35 -8 0 -14 -6 -14
-14z"/>
<path d="M780 1475 c0 -10 7 -15 18 -13 21 4 19 22 -2 26 -10 2 -16 -3 -16
-13z"/>
<path d="M1724 1479 c-8 -14 11 -33 25 -25 11 7 4 36 -9 36 -5 0 -12 -5 -16
-11z"/>
<path d="M1674 1449 c-8 -14 11 -33 25 -25 11 7 4 36 -9 36 -5 0 -12 -5 -16
-11z"/>
<path d="M1624 1419 c-8 -14 11 -33 25 -25 11 7 4 36 -9 36 -5 0 -12 -5 -16
-11z"/>
<path d="M1570 1386 c0 -18 16 -29 30 -21 13 8 1 35 -16 35 -8 0 -14 -6 -14
-14z"/>
<path d="M1525 1360 c-7 -12 2 -30 16 -30 12 0 12 27 0 35 -5 3 -12 1 -16 -5z"/>
<path d="M1748 1342 c-36 -22 -35 -34 3 -66 31 -26 55 -31 96 -20 22 6 22 8
-18 55 -22 27 -44 49 -47 48 -4 0 -19 -8 -34 -17z"/>
<path d="M1475 1330 c-7 -12 2 -30 16 -30 12 0 12 27 0 35 -5 3 -12 1 -16 -5z"/>
<path d="M1158 363 c12 -2 32 -2 45 0 12 2 2 4 -23 4 -25 0 -35 -2 -22 -4z"/>
<path d="M1298 363 c12 -2 32 -2 45 0 12 2 2 4 -23 4 -25 0 -35 -2 -22 -4z"/>
</g>
</svg>
